<svg id="Layer_1" data-name="Layer 1" xmlns="http://www.w3.org/2000/svg" viewBox="0 0 137.01 121"><defs><style>.cls-1{fill:#92a5a6;}</style></defs><title>burger-waves</title><path class="cls-1" d="M383.62,308.22a38.91,38.91,0,0,1-18.82-4.38,34.69,34.69,0,0,0-30.86,0,42.62,42.62,0,0,1-37.64,0,31,31,0,0,0-15.43-3.62c-7.68,0-11.27,1.68-15.44,3.62a38.88,38.88,0,0,1-18.82,4.38v-8a31,31,0,0,0,15.44-3.62,42.62,42.62,0,0,1,37.64,0,34.69,34.69,0,0,0,30.86,0,42.62,42.62,0,0,1,37.64,0,31,31,0,0,0,15.43,3.62Z" transform="translate(-246.61 -292.22)"/><path class="cls-1" d="M383.62,360.72a38.91,38.91,0,0,1-18.82-4.38,34.69,34.69,0,0,0-30.86,0,42.62,42.62,0,0,1-37.64,0,31,31,0,0,0-15.43-3.62c-7.68,0-11.27,1.68-15.44,3.62a38.88,38.88,0,0,1-18.82,4.38v-8a31,31,0,0,0,15.44-3.62,42.62,42.62,0,0,1,37.64,0,34.69,34.69,0,0,0,30.86,0,42.62,42.62,0,0,1,37.64,0,31,31,0,0,0,15.43,3.62Z" transform="translate(-246.61 -292.22)"/><path class="cls-1" d="M383.62,413.22a38.91,38.91,0,0,1-18.82-4.38,34.69,34.69,0,0,0-30.86,0,42.62,42.62,0,0,1-37.64,0,31,31,0,0,0-15.43-3.62c-7.68,0-11.27,1.68-15.44,3.62a38.88,38.88,0,0,1-18.82,4.38v-8a31,31,0,0,0,15.44-3.62,42.62,42.62,0,0,1,37.64,0,34.69,34.69,0,0,0,30.86,0,42.62,42.62,0,0,1,37.64,0,31,31,0,0,0,15.43,3.62Z" transform="translate(-246.61 -292.22)"/></svg>